<svg xmlns="http://www.w3.org/2000/svg" fill="#fff" xmlns:xlink="http://www.w3.org/1999/xlink" version="1.1" x="0px" y="0px" viewBox="0 0 64 80" style="enable-background:new 0 0 64 64;" xml:space="preserve"><g><g><path d="M51.9279327,21.7396793c0.4349823,0.5281906,0.828537,1.0771046,1.1793747,1.6428432V3.9752321    c0-1.584584-1.2894211-2.8752923-2.8753014-2.8752923H4.6298699c-1.5845842,0-2.8752925,1.2907082-2.8752925,2.8752923v56.04953    c0,1.5858803,1.2907083,2.8752975,2.8752925,2.8752975h45.6021347c1.5858803,0,2.8753014-1.2894173,2.8753014-2.8752975V54.160244    l-3.8837891-4.6993828v9.5554123H5.6383648V4.9837275h43.5851517v14.20819    C50.2164726,19.9155903,51.1252823,20.768734,51.9279327,21.7396793z"/><rect x="10.0835524" y="36.91959" width="5.9551406" height="10.2273073"/><rect x="19.6635609" y="26.0449848" width="5.9551406" height="21.1019115"/><path d="M35.1991615,30.058754v6.4613228c-0.1734695-0.170887-0.3391838-0.3534203-0.4984169-0.5450249    c-1.2712936-1.5405655-1.866806-3.4850502-1.6765022-5.4761391c0.0142403-0.1475868,0.0323639-0.2951641,0.0543709-0.4401588    H35.1991615z"/><path d="M35.1991615,45.1006546v2.0467644h-5.9551411v-6.2037086    C30.8765125,42.8260574,32.91679,44.2410507,35.1991615,45.1006546z"/><path d="M41.1801949,23.7605419c1.3166008,0.1242847,2.5490608,0.5825691,3.5989761,1.3230743v12.2455845    c-1.2945976,0.9152794-2.8002129,1.3606224-4.2993469,1.3606224c-0.5566826,0-1.1120605-0.0621452-1.6557961-0.1838303V23.9068317    c0.5320854-0.1191006,1.0784035-0.1799507,1.6324921-0.1799507C40.6960182,23.726881,40.9381065,23.7385368,41.1801949,23.7605419    z"/><path d="M40.5005341,46.0599556c1.4628906,0,2.9024811-0.2136116,4.2786369-0.6304665v1.7179298h-5.955143v-1.1806793    c0.080265,0.0103607,0.1592407,0.0181274,0.2395058,0.0258942C39.5438232,46.0379486,40.0241241,46.0599556,40.5005341,46.0599556    z"/></g><path d="M30.1808186,39.7072296c4.6890125,5.671814,13.1164341,6.4747429,18.7882137,1.7856636   c5.6782722-4.6890106,6.4747391-13.1163998,1.7921219-18.7882118c-4.689045-5.6718121-13.116436-6.4747086-18.7882137-1.7856274   C26.2947025,25.6080647,25.4981995,34.0354538,30.1808186,39.7072296z M34.7414055,24.2719803   c3.8218498-3.1602707,9.5065155-2.6207237,12.6667862,1.2011642c3.1602707,3.8283119,2.6207237,9.5129433-1.2075882,12.673214   c-3.821888,3.160305-9.5065193,2.614296-12.66679-1.2076225C30.3735104,33.1105232,30.9130917,27.432251,34.7414055,24.2719803z"/><path d="M61.8375549,52.4507942c0.6261482,0.7578087,0.5194855,1.879715-0.2382889,2.5058975l-1.7863083,1.4760399   c-0.7578087,0.626152-1.8797112,0.5194511-2.5058632-0.2382889L47.9194832,44.83358l4.5304947-3.7435799L61.8375549,52.4507942z"/></g></svg>