<svg xmlns="http://www.w3.org/2000/svg" fill="#fff"  version="1.1" viewBox="-5.0 -10.0 110.0 135.0">
 <g>
  <path d="m31.25 43.75h37.5c1.7188 0 3.125-1.4062 3.125-3.125 0-8.75-5.1875-16.312-12.625-19.781 7.2812-8.0938 1.5-20.844-9.25-20.844s-16.531 12.75-9.25 20.844c-7.4375 3.5-12.625 11.031-12.625 19.781 0 1.7188 1.4062 3.125 3.125 3.125zm12.5-31.25c0-3.4375 2.8125-6.25 6.25-6.25s6.25 2.8125 6.25 6.25-2.8125 6.25-6.25 6.25-6.25-2.8125-6.25-6.25zm6.25 12.5c7.5312 0 13.875 5.375 15.312 12.5h-30.625c1.4375-7.125 7.75-12.5 15.312-12.5z"/>
  <path d="m31.125 77.094c7.2812-8.0938 1.5-20.844-9.25-20.844s-16.531 12.75-9.25 20.844c-7.4375 3.5-12.625 11.031-12.625 19.781 0 1.7188 1.4062 3.125 3.125 3.125h25c1.7188 0 3.125-1.4062 3.125-3.125s-1.4062-3.125-3.125-3.125h-21.562c1.4375-7.125 7.75-12.5 15.312-12.5 8.625 0 15.625 7 15.625 15.625 0 1.7188 1.4062 3.125 3.125 3.125s3.125-1.4062 3.125-3.125c0-8.75-5.1875-16.312-12.625-19.781zm-15.5-8.3438c0-3.4375 2.8125-6.25 6.25-6.25s6.25 2.8125 6.25 6.25-2.8125 6.25-6.25 6.25-6.25-2.8125-6.25-6.25z"/>
  <path d="m87.375 77.094c7.2812-8.0938 1.5-20.844-9.25-20.844s-16.531 12.75-9.25 20.844c-7.4375 3.5-12.625 11.031-12.625 19.781 0 1.7188 1.4062 3.125 3.125 3.125h37.5c1.7188 0 3.125-1.4062 3.125-3.125 0-8.75-5.1875-16.312-12.625-19.781zm-15.5-8.3438c0-3.4375 2.8125-6.25 6.25-6.25s6.25 2.8125 6.25 6.25-2.8125 6.25-6.25 6.25-6.25-2.8125-6.25-6.25zm-9.0625 25c1.4375-7.125 7.75-12.5 15.312-12.5s13.875 5.375 15.312 12.5z"/>
  <path d="m43.75 71.875c-2.75 0-4.1875-3.3438-2.2188-5.3438l5.3438-5.3438v-8.0938c0-1.7188 1.4062-3.125 3.125-3.125s3.125 1.4062 3.125 3.125c0 10.188 0.28125 10.375-0.90625 11.594-6.8125 6.8125-6.7812 7.1562-8.4688 7.1562z"/>
  <path d="m56.25 71.875c-1.6875 0-1.7812-0.46875-8.4688-7.1562-1.2188-1.2188-1.2188-3.1875 0-4.4062s3.1875-1.2188 4.4062 0l6.25 6.25c1.9688 1.9688 0.53125 5.3438-2.2188 5.3438z"/>
 </g>
</svg>