<svg xmlns="http://www.w3.org/2000/svg" xmlns:xlink="http://www.w3.org/1999/xlink" xml:space="preserve" version="1.1" style="shape-rendering:geometricPrecision;text-rendering:geometricPrecision;image-rendering:optimizeQuality;" viewBox="0 0 846.66 1058.325" x="0px" y="0px"  fill="#fff"  clip-rule="evenodd"><defs><style type="text/css">
   
   
  </style></defs><g><path class="fil0" d="M616.98 271.83l0 150.82c0,111.46 -84.94,200.91 -193.65,216.28 -108.81,-15.39 -193.65,-104.86 -193.65,-216.28l0 -150.82c90.68,0 118.1,-21.64 193.65,-64.1 76.29,42.87 102.03,64.1 193.65,64.1zm121.5 -2.53c23.52,48.02 35.66,100.56 35.66,154.03 0,193.74 -157.07,350.81 -350.81,350.81 -58.06,0 -115.31,-14.39 -166.37,-41.98l-34.23 34.23 -36.26 -135.33 135.33 36.26 -27.96 27.96c40.56,19.33 84.51,29.09 129.49,29.09 166.27,0 301.04,-134.77 301.04,-301.04 0,-45.91 -10.21,-91 -30.41,-132.26l44.52 -21.77zm-637.06 293.4c-19.03,-43.9 -28.9,-91.52 -28.9,-139.37 0,-193.74 157.07,-350.81 350.81,-350.81 61.94,0 122.49,16.26 176,47.32l35.99 -35.98 36.26 135.32 -135.32 -36.26 26.5 -26.51c-43.08,-22.58 -90.75,-34.12 -139.43,-34.12 -166.27,0 -301.04,134.77 -301.04,301.04 0,41.38 8.16,81.75 24.63,119.74l-45.5 19.63zm313.6 49.69l0 -179.89 -160.15 0c4.68,89.57 72.66,163.03 160.15,179.89zm16.62 -196.51l160.42 0 0 -119.32c-70.15,-2.19 -105.03,-23.81 -160.42,-55.53l0 174.85z"/></g></svg>