<svg xmlns="http://www.w3.org/2000/svg" fill="#fff" xmlns:xlink="http://www.w3.org/1999/xlink" version="1.1" x="0px" y="0px" viewBox="0 0 66 82.5" enable-background="new 0 0 66 66" xml:space="preserve"><g><g><g><path d="M42.2174,5.9895H8.9185c-1.6122,0-2.929,1.3168-2.929,2.9289v20.2663c0,1.6206,1.3168,2.9374,2.929,2.9374h1.5953v6.8117     c0,1.072,1.2914,1.6122,2.0511,0.8525l1.6544-1.6544c-0.0253-0.3461-0.0422-0.6922-0.0422-1.0382     c0-4.2204,2.0511-7.9681,5.2079-10.3061h-7.4532c-0.8863,0-1.6122-0.7259-1.6122-1.6038c0-0.8863,0.7259-1.6122,1.6122-1.6122     h12.2222v-2.8868H11.9319c-0.8863,0-1.6122-0.7259-1.6122-1.6122c0-0.8779,0.7259-1.6038,1.6122-1.6038h13.4714     c0.7681-0.7681,1.8232-1.2408,2.9965-1.2408h16.7549V8.9185C45.1547,7.3063,43.838,5.9895,42.2174,5.9895z M39.2124,14.5738     H11.9319c-0.8863,0-1.6122-0.7174-1.6122-1.6038c0-0.8863,0.7259-1.6122,1.6122-1.6122h27.2806     c0.8863,0,1.6037,0.7259,1.6037,1.6122C40.8162,13.8563,40.0987,14.5738,39.2124,14.5738z"/><path d="M57.4529,17.9163H28.3998c-1.4181,0-2.5576,1.1479-2.5576,2.5575v3.8659c0.3798-0.0422,0.7597-0.0591,1.1479-0.0591     c0.1942,0,0.3883,0.0084,0.5824,0.0169c0.7428,0.0337,1.4687,0.1266,2.1693,0.287c-0.0844-0.1772-0.1266-0.3714-0.1266-0.5824     c0-0.7681,0.6331-1.4011,1.4096-1.4011h23.803c0.7681,0,1.4011,0.6331,1.4011,1.4011c0,0.7766-0.6331,1.4012-1.4011,1.4012     H32.215c1.3843,0.6162,2.6335,1.4771,3.7055,2.5238h18.9073c0.7681,0,1.4011,0.6331,1.4011,1.4096     c0,0.7681-0.6331,1.4012-1.4011,1.4012H38.1067c0.4558,0.7934,0.8272,1.6375,1.1057,2.5238h15.6154     c0.7681,0,1.4011,0.6246,1.4011,1.4011c0,0.7681-0.6331,1.4012-1.4011,1.4012H39.7611c0.0169,0.2448,0.0253,0.4895,0.0338,0.7428     c0.0253,1.3421-0.1435,2.6588-0.5233,3.9081h8.3057L54.2707,47.4c0.6584,0.6668,1.7894,0.1941,1.7894-0.7428v-5.9423h1.3927     c1.4096,0,2.5575-1.148,2.5575-2.5576V20.4739C60.0105,19.0643,58.8625,17.9163,57.4529,17.9163z"/></g><g><g><path d="M38.1067,36.849c-0.1266-5.782-4.8366-10.6101-10.6101-10.8717c-6.3728-0.2786-11.6314,4.8028-11.6314,11.1165      c0,2.9627,1.1564,5.6553,3.0471,7.6473c1.8908,1.992,3.0893,4.5242,3.2835,7.2422h-0.1435      c-0.7343,0-1.3421,0.5993-1.3421,1.3337c0,0.7428,0.6078,1.3421,1.3421,1.3421c-0.7343,0-1.3421,0.5993-1.3421,1.3421      c0,0.7259,0.6078,1.3337,1.3421,1.3337h2.0595c-0.7343,0-1.3337,0.5993-1.3337,1.3421c0,0.7343,0.5993,1.3337,1.3337,1.3337      h5.7482c0.7343,0,1.3421-0.5993,1.3421-1.3337c0-0.7428-0.6077-1.3421-1.3421-1.3421h2.068      c0.7343,0,1.3336-0.6078,1.3336-1.3337c0-0.7428-0.5993-1.3421-1.3336-1.3421c0.7343,0,1.3336-0.5993,1.3336-1.3421      c0-0.7343-0.5993-1.3337-1.3336-1.3337h-0.2701c0.211-2.6842,1.4096-5.1911,3.3003-7.1409      C36.9587,42.7913,38.1742,39.9552,38.1067,36.849z M33.6415,38.7988c0,0.9791-0.6246,1.8401-1.5446,2.1439      c-0.6331,0.2026-1.2661,0.3714-1.8992,0.5065v10.5341h-1.0635V41.6264c-1.4265,0.1942-2.8614,0.1942-4.2964,0v10.3568h-1.0551      V41.4492c-0.6415-0.1351-1.2746-0.3039-1.8992-0.5065c-0.9285-0.3039-1.5531-1.1648-1.5531-2.1439v-0.4811      c0-1.2408,1.0129-2.2537,2.2537-2.2537c1.2408,0,2.2537,1.0129,2.2537,2.2537v2.2368c1.4349,0.211,2.8699,0.211,4.2964,0      v-2.2368c0-1.2408,1.0129-2.2537,2.2537-2.2537c1.2408,0,2.2537,1.0129,2.2537,2.2537V38.7988z"/></g><g><path d="M22.5841,37.1191c-0.6584,0-1.1986,0.5402-1.1986,1.1986v0.4811c0,0.5233,0.3292,0.9791,0.8272,1.1395      c0.5149,0.1688,1.0466,0.3123,1.57,0.4305v-2.0511C23.7827,37.6593,23.2425,37.1191,22.5841,37.1191z M31.3878,37.1191      c-0.6584,0-1.1901,0.5402-1.1901,1.1986v2.0511c0.5233-0.1182,1.0466-0.2617,1.57-0.4305      c0.4895-0.1604,0.8187-0.6162,0.8187-1.1395v-0.4811C32.5864,37.6593,32.0462,37.1191,31.3878,37.1191z"/></g></g></g></g></svg>