<svg width="213" height="100" viewBox="0 0 313 134" fill="none" xmlns="http://www.w3.org/2000/svg">
<g clip-path="url(#clip0_414_6676)">
<mask id="mask0_414_6676" style="mask-type:luminance" maskUnits="userSpaceOnUse" x="96" y="56" width="321" height="23">
<path d="M216.5 56.2852H96.5V78.2852H216.5V56.2852Z" fill="white"/>
</mask>
<g mask="url(#mask0_414_6676)">
<path fill-rule="evenodd" clip-rule="evenodd" d="M123.847 69.374H137.299C137.557 69.374 139.646 69.2025 139.646 66.8588C139.646 61.0852 135.181 56.3691 129.657 56.3691C124.133 56.3691 119.639 61.0852 119.639 66.8588V67.4018C119.639 74.0043 123.875 77.577 129.514 77.8914C129.772 77.92 130.058 77.92 130.315 77.92C132.491 77.92 134.294 77.3484 136.298 76.1194C136.498 76.005 137.299 75.462 138.101 74.433C138.759 73.6042 138.788 72.3751 138.101 71.7177C137.099 70.7745 136.04 71.289 135.124 72.0893L135.069 72.136C133.636 73.3428 132.511 74.2901 129.629 74.2901C126.881 74.2901 124.305 72.7181 123.675 69.6026C123.675 69.4883 123.732 69.374 123.847 69.374ZM123.675 65.5154C124.047 62.4857 126.137 59.799 129.629 59.799C133.12 59.799 135.324 62.4285 135.668 65.5154C135.668 65.6297 135.611 65.7441 135.496 65.7441H123.847C123.732 65.7155 123.675 65.6297 123.675 65.5154ZM213.006 56.569C211.661 56.569 210.488 57.3979 209.944 58.5412C208.141 62.2283 202.817 73.1752 202.817 73.2038L202.812 73.2134C202.777 73.2852 202.662 73.5182 202.445 73.5182C202.244 73.5182 202.101 73.2896 202.073 73.2038C200.78 70.5154 198.529 65.8831 196.715 62.1514L196.713 62.1452L196.711 62.1423L196.711 62.141C196.077 60.8381 195.498 59.6453 195.032 58.6841C194.316 57.255 193.142 56.569 191.883 56.569C189.937 56.569 188.334 58.2268 188.334 60.4562V75.519C188.334 76.4335 188.849 77.291 189.65 77.5483C190.967 77.977 192.083 76.8337 192.083 75.4904L191.797 60.8277C191.797 60.6848 191.969 60.6277 192.055 60.742L199.268 75.376C199.955 76.7766 201.1 77.6054 202.387 77.6054C203.675 77.6054 204.849 76.7766 205.507 75.376L212.749 60.7134C212.806 60.5705 213.006 60.6277 213.006 60.7992L212.72 75.5475C212.72 76.7194 213.608 77.6626 214.667 77.6054C215.697 77.5768 216.499 76.5765 216.499 75.4618V60.4562C216.556 58.1982 214.953 56.5976 213.006 56.569ZM118.466 56.799C117.493 56.2845 116.32 56.6847 115.804 57.685L108.706 72.9765C108.534 73.2909 108.391 73.5195 108.019 73.5195C107.647 73.5195 107.504 73.2909 107.332 72.9765L100.234 57.7136C99.7471 56.6847 98.5449 56.2845 97.5717 56.8276C96.5986 57.342 96.2265 58.5997 96.7131 59.6286L103.668 73.7482L104.47 75.3488C105.157 76.7493 106.531 77.6354 108.019 77.6354C109.536 77.6354 110.881 76.7493 111.568 75.3488L112.37 73.7482L119.296 59.6C119.812 58.5711 119.439 57.342 118.466 56.799ZM177.887 58.827L185.873 74.5757C186.302 75.4332 186.13 76.4621 185.415 77.0624L185.386 77.091L185.3 77.1767C185.272 77.1767 185.243 77.2053 185.214 77.2339C185.2 77.2339 185.193 77.241 185.186 77.2481C185.179 77.2553 185.172 77.2624 185.157 77.2624C185.157 77.291 185.128 77.3196 185.1 77.3196C185.086 77.3196 185.078 77.3267 185.071 77.3339C185.064 77.3411 185.057 77.3482 185.043 77.3482C185.043 77.3768 185.014 77.3768 185.014 77.3768C185.009 77.3768 185.005 77.3776 185.002 77.379C184.995 77.3816 184.99 77.3863 184.985 77.3911C184.978 77.3982 184.971 77.4053 184.957 77.4053L184.785 77.4911C184.785 77.5197 184.756 77.5197 184.756 77.5197C184.556 77.6054 184.327 77.634 184.098 77.634C183.383 77.634 182.696 77.2339 182.352 76.5479L175.082 61.4566C175.058 61.4079 175.034 61.3568 175.01 61.305C174.894 61.0525 174.771 60.7846 174.509 60.7134C174.395 60.6563 174.252 60.6563 174.08 60.7134C173.836 60.7865 173.697 61.1084 173.625 61.2728C173.613 61.3014 173.602 61.3253 173.593 61.3422C173.565 61.3422 173.565 61.3708 173.565 61.3708V61.3994L170.56 67.4302L170.159 68.2877C170.102 68.402 170.187 68.5163 170.302 68.5163H171.39H175.797C176.771 68.5163 177.572 69.3738 177.572 70.4027C177.572 71.4603 176.771 72.2892 175.797 72.2892H168.384C168.298 72.2892 168.184 72.3463 168.155 72.4321L166.495 75.9191L166.209 76.5479C166.094 76.748 165.98 76.9195 165.837 77.0624L165.808 77.091L165.722 77.1767C165.694 77.2053 165.665 77.2339 165.608 77.2624C165.608 77.291 165.579 77.291 165.579 77.291C164.978 77.7197 164.205 77.7769 163.519 77.3768C163.318 77.2624 163.146 77.091 163.003 76.9195C163.003 76.9052 162.996 76.898 162.989 76.8909C162.982 76.8837 162.975 76.8766 162.975 76.8623C162.975 76.848 162.967 76.8409 162.96 76.8337C162.953 76.8265 162.946 76.8194 162.946 76.8052C162.517 76.1763 162.431 75.3474 162.803 74.6043V74.5757C162.803 74.5614 162.81 74.5543 162.817 74.5472C162.824 74.54 162.831 74.5328 162.831 74.5186L170.788 58.8556C171.046 58.3125 171.39 57.8838 171.819 57.5122C172.506 56.912 173.393 56.569 174.338 56.569C175.826 56.569 177.2 57.4265 177.887 58.827ZM159.626 69.374H146.173C146.087 69.374 146.001 69.4883 146.03 69.6026C146.66 72.7181 149.236 74.2901 151.984 74.2901C154.866 74.2901 155.99 73.3428 157.423 72.136L157.479 72.0893C158.395 71.289 159.454 70.7745 160.456 71.7177C161.142 72.3751 161.114 73.6042 160.456 74.433C159.654 75.462 158.853 76.005 158.652 76.1194C156.649 77.3484 154.846 77.92 152.67 77.92C152.413 77.92 152.127 77.92 151.869 77.8914C146.23 77.577 141.994 74.0043 141.994 67.4018V66.8588C141.994 61.0852 146.488 56.3691 151.984 56.3691C157.479 56.3691 161.944 61.0852 161.973 66.8588C161.973 69.2025 159.883 69.374 159.626 69.374ZM151.984 59.799C148.491 59.799 146.402 62.4857 146.03 65.5154C146.001 65.6297 146.087 65.7155 146.202 65.7441H157.851C157.966 65.7441 158.023 65.6297 158.023 65.5154C157.679 62.4285 155.475 59.799 151.984 59.799Z" fill="#00B336"/>
</g>
</g>
<defs>
<clipPath id="clip0_414_6676">
<rect width="140" height="22" fill="white" transform="translate(96.5 56.2852)"/>
</clipPath>
</defs>
</svg>
